<?xml version="1.0" standalone="no"?>
<!DOCTYPE svg PUBLIC "-//W3C//DTD SVG 20010904//EN"
 "http://www.w3.org/TR/2001/REC-SVG-20010904/DTD/svg10.dtd">
<svg version="1.0" xmlns="http://www.w3.org/2000/svg"
 width="789.000000pt" height="513.000000pt" viewBox="0 0 789.000000 513.000000"
 preserveAspectRatio="xMidYMid meet">

<g transform="translate(0.000000,513.000000) scale(0.100000,-0.100000)"
fill="#000000" stroke="none">
<path d="M1225 4981 l-90 -6 68 -9 c81 -10 183 -4 199 12 13 13 -7 13 -177 3z"/>
<path d="M3313 4863 c15 -2 37 -2 50 0 12 2 0 4 -28 4 -27 0 -38 -2 -22 -4z"/>
<path d="M3188 4853 c6 -2 18 -2 25 0 6 3 1 5 -13 5 -14 0 -19 -2 -12 -5z"/>
<path d="M3473 4853 c9 -2 23 -2 30 0 6 3 -1 5 -18 5 -16 0 -22 -2 -12 -5z"/>
<path d="M3921 4669 c83 -83 171 -216 261 -395 40 -79 73 -142 73 -141 1 1 -2
47 -6 102 -11 126 -49 275 -94 368 -19 40 -32 63 -29 52 4 -11 15 -44 25 -74
26 -76 25 -82 -13 -74 -23 4 -60 32 -123 92 -110 106 -188 164 -94 70z"/>
<path d="M4100 4700 c6 -11 13 -20 16 -20 2 0 0 9 -6 20 -6 11 -13 20 -16 20
-2 0 0 -9 6 -20z"/>
<path d="M1095 4295 c48 -55 92 -104 97 -110 6 -5 1 6 -11 25 -11 19 -55 69
-97 110 l-77 75 88 -100z"/>
<path d="M2106 4238 c-60 -108 -116 -237 -162 -373 -43 -129 -52 -177 -35
-204 7 -11 11 -10 20 7 6 11 11 27 11 36 0 41 76 270 140 420 39 92 69 170 66
173 -2 2 -20 -24 -40 -59z"/>
<path d="M2138 3916 c-68 -95 -135 -215 -168 -299 -19 -48 -40 -87 -47 -87 -7
0 -13 -4 -13 -10 0 -5 7 -7 15 -4 11 4 15 0 15 -16 0 -13 -8 -24 -20 -27 -11
-3 -20 -10 -20 -15 0 -6 7 -8 15 -4 21 8 19 -21 -2 -33 -10 -6 -13 -11 -8 -11
6 0 10 -67 11 -178 1 -197 15 -299 67 -482 l32 -115 6 365 c5 272 11 388 23
455 20 109 76 323 111 424 14 41 23 76 21 79 -3 2 -20 -17 -38 -42z"/>
<path d="M3320 3651 c-116 -37 -229 -92 -303 -145 -87 -62 -117 -98 -38 -46
84 56 192 111 305 154 51 20 101 43 112 51 25 19 24 19 -76 -14z"/>
<path d="M1618 3220 c4 -226 10 -250 10 -45 0 88 -3 174 -7 190 -4 17 -6 -49
-3 -145z"/>
<path d="M6051 3188 c-1 -18 -25 -58 -71 -115 -38 -48 -70 -93 -70 -100 0 -6
-9 -15 -20 -18 -11 -3 -20 -10 -20 -14 0 -4 -18 -27 -40 -51 -44 -47 -48 -55
-25 -46 8 3 15 1 15 -4 0 -5 -8 -11 -19 -15 -19 -6 -67 -100 -164 -326 -30
-69 -75 -159 -101 -199 l-47 -72 28 6 c59 14 212 98 289 160 136 107 227 249
260 406 17 82 15 329 -4 385 l-10 30 -1 -27z"/>
<path d="M4372 3114 c-37 -103 -39 -121 -13 -172 11 -24 21 -72 25 -132 14
-193 22 -178 28 55 3 127 3 254 0 284 l-7 53 -33 -88z"/>
<path d="M5601 2868 c-3 -256 -77 -422 -231 -519 -43 -27 -44 -29 -17 -29 64
0 168 83 213 172 13 26 31 76 39 110 16 68 19 252 6 328 -7 37 -9 25 -10 -62z"/>
<path d="M2012 2594 c-4 -52 -76 -286 -108 -352 -21 -42 -57 -94 -87 -125 -71
-73 -199 -167 -282 -210 l-70 -36 520 0 c286 0 513 3 505 6 -156 56 -247 110
-320 190 -108 118 -139 203 -150 407 -4 78 -8 132 -8 120z"/>
<path d="M1608 2294 c-12 -164 -117 -287 -330 -389 l-72 -35 65 0 c61 0 69 3
141 50 139 91 199 186 206 325 5 103 -2 143 -10 49z"/>
<path d="M3117 2195 c38 -49 72 -81 138 -127 57 -40 165 -102 165 -95 0 3 -21
18 -47 33 -64 37 -155 106 -228 174 -53 49 -56 51 -28 15z"/>
<path d="M4678 2213 c-54 -2 -98 -6 -98 -9 0 -3 5 -14 10 -25 10 -17 13 -18
26 -4 9 8 34 15 57 16 23 0 65 7 92 14 28 7 41 12 30 12 -11 -1 -64 -3 -117
-4z"/>
<path d="M3040 2029 c25 -21 100 -62 146 -80 l25 -9 -20 29 c-14 19 -32 30
-58 34 -21 4 -56 16 -78 26 l-40 20 25 -20z"/>
<path d="M3430 1965 c0 -7 61 -37 66 -33 2 3 -12 12 -31 21 -19 9 -35 15 -35
12z"/>
<path d="M4314 1603 c-93 -112 -174 -218 -174 -228 0 -16 -184 -184 -250 -227
-41 -27 -77 -51 -79 -54 -2 -2 208 -4 468 -4 l473 0 -79 40 c-103 51 -175 120
-215 207 -29 61 -32 78 -39 216 -4 82 -10 151 -12 153 -2 2 -44 -44 -93 -103z"/>
<path d="M3939 1564 c-5 -112 -8 -127 -39 -190 -59 -121 -170 -207 -335 -260
l-70 -23 81 -1 c71 0 88 4 145 32 80 40 162 121 195 193 33 72 43 147 35 270
l-7 100 -5 -121z"/>
<path d="M4897 1569 c284 -538 545 -889 868 -1166 242 -209 450 -316 724 -374
139 -29 373 -36 526 -15 182 24 199 32 90 40 -343 27 -522 63 -725 147 -52 22
-240 112 -417 201 -239 119 -339 175 -387 214 -171 141 -403 460 -569 782 -38
74 -84 158 -103 187 -19 30 -34 58 -34 63 0 5 -8 16 -17 23 -9 8 11 -38 44
-102z"/>
<path d="M7859 524 c-43 -52 -279 -204 -416 -270 -181 -85 -391 -114 -578 -80
-154 29 -339 113 -485 220 -30 22 -49 32 -42 24 23 -29 183 -134 269 -177 319
-160 578 -160 893 -2 185 94 283 166 355 264 27 36 30 52 4 21z"/>
</g>
</svg>
